<?xml version="1.0" encoding="UTF-8"?>
<svg width="11px" height="15px" viewBox="0 0 11 15" version="1.1" xmlns="http://www.w3.org/2000/svg" xmlns:xlink="http://www.w3.org/1999/xlink">
    <!-- Generator: Sketch 42 (36781) - http://www.bohemiancoding.com/sketch -->
    <title>XMLID_1086_</title>
    <desc>Created with Sketch.</desc>
    <defs></defs>
    <g id="Page-1" stroke="none" stroke-width="1" fill="none" fill-rule="evenodd">
        <g id="icon-annotation" fill-rule="nonzero" fill="#333333">
            <g id="Layer_2_1_">
                <g id="XMLID_411_">
                    <g id="XMLID_1084_">
                        <g id="XMLID_1085_">
                            <path d="M5.5,0.3 C2.7,0.3 0.5,2.5 0.5,5.5 C0.5,9.1 5,14.3 5.2,14.5 C5.4,14.7 5.7,14.7 5.9,14.5 C6.1,14.3 10.6,9 10.6,5.5 C10.5,2.7 8.3,0.3 5.5,0.3 Z M5.5,8.2 C4.1,8.2 2.9,7 2.9,5.6 C2.9,4.3 4,3 5.5,3 C6.9,3 8.1,4.2 8.1,5.6 C8.1,7 6.9,8.2 5.5,8.2 Z" id="XMLID_1086_"></path>
                        </g>
                    </g>
                </g>
            </g>
        </g>
    </g>
</svg>